<svg width="405" height="213" viewBox="0 0 405 213" fill="none" xmlns="http://www.w3.org/2000/svg">
<path fill-rule="evenodd" clip-rule="evenodd" d="M237.022 117.245C237.022 120.665 236.357 123.684 235.042 126.302C233.712 128.927 231.936 131.086 229.692 132.778C227.04 134.82 224.19 136.256 221.172 137.117C218.146 137.963 214.229 138.385 209.435 138.385H189.236V69.5464H207.915C212.936 69.5464 216.692 69.7068 219.198 70.0277C221.705 70.3485 224.117 71.1069 226.419 72.3174C228.94 73.6373 230.789 75.3729 231.943 77.5095C233.113 79.6462 233.697 82.1693 233.697 85.0498C233.697 88.2948 232.82 91.1899 231.066 93.7349C229.32 96.2944 226.894 98.2998 223.802 99.7364V100.108C227.997 101.224 231.249 103.251 233.551 106.197C235.875 109.151 237.022 112.819 237.022 117.245ZM223.949 86.3624C223.949 84.6851 223.663 83.2559 223.086 82.0235C222.531 80.8202 221.61 79.8504 220.353 79.143C218.833 78.3117 217.145 77.8012 215.281 77.6116C213.425 77.4366 210.853 77.3418 207.572 77.3418H198.576V97.4977H209.231C212.161 97.4977 214.331 97.3518 215.713 97.0528C217.101 96.7539 218.533 96.1559 220.017 95.2298C221.442 94.3474 222.45 93.1661 223.05 91.7222C223.656 90.2637 223.949 88.4698 223.949 86.3624ZM227.281 117.617C227.281 115.021 226.894 112.884 226.134 111.193C225.374 109.515 223.846 108.086 221.552 106.919C220.061 106.139 218.446 105.65 216.699 105.432C214.945 105.22 212.461 105.111 209.238 105.111H198.576V130.597H206.212C210.312 130.597 213.549 130.408 215.917 130.036C218.285 129.664 220.375 128.884 222.165 127.673C223.934 126.47 225.22 125.099 226.046 123.575C226.872 122.043 227.281 120.053 227.281 117.617Z" fill="white"/>
<path fill-rule="evenodd" clip-rule="evenodd" d="M246.361 138.385V69.5464H290.486V77.6846H255.708V96.5497H288.118V104.702H255.708V130.24H290.486V138.385H246.361Z" fill="white"/>
<path fill-rule="evenodd" clip-rule="evenodd" d="M320.361 139.611C315.245 139.611 310.912 139.085 307.331 138.072C303.75 137.036 300.388 135.76 297.239 134.258V122.802H297.904C300.988 125.631 304.481 127.819 308.398 129.372C312.3 130.925 316.078 131.698 319.703 131.698C324.862 131.698 328.772 130.656 331.425 128.541C334.07 126.426 335.393 123.64 335.393 120.198C335.393 117.449 334.691 115.225 333.31 113.497C331.929 111.769 329.722 110.492 326.689 109.654C324.519 109.041 322.531 108.538 320.733 108.137C318.936 107.736 316.678 107.196 313.966 106.525C311.54 105.906 309.355 105.118 307.433 104.163C305.519 103.207 303.816 101.961 302.325 100.422C300.871 98.9051 299.745 97.1403 298.942 95.0766C298.13 93.0421 297.736 90.6794 297.736 87.9958C297.736 82.4172 299.957 77.7429 304.415 73.9655C308.851 70.2027 314.529 68.314 321.428 68.314C325.374 68.314 329.094 68.7005 332.616 69.4661C336.124 70.2391 339.383 71.333 342.372 72.7477V83.7225H341.663C339.434 81.7099 336.562 79.967 333.062 78.4648C329.561 76.9699 325.885 76.2261 322.049 76.2261C317.701 76.2261 314.193 77.2178 311.504 79.194C308.822 81.1848 307.492 83.7955 307.492 87.0259C307.492 89.9428 308.281 92.2691 309.852 93.9973C311.431 95.7256 313.718 96.9945 316.707 97.7893C318.702 98.3071 321.121 98.905 323.993 99.5686C326.865 100.225 329.24 100.845 331.14 101.399C335.992 102.85 339.544 105.038 341.773 107.962C344.016 110.894 345.134 114.496 345.134 118.776C345.134 121.445 344.572 124.107 343.461 126.718C342.335 129.343 340.764 131.567 338.747 133.383C336.482 135.381 333.917 136.927 331.067 138.006C328.209 139.078 324.636 139.611 320.361 139.611Z" fill="white"/>
<path fill-rule="evenodd" clip-rule="evenodd" d="M371.179 138.385V77.6846H347.509V69.5464H404.203V77.6846H380.533V138.385H371.179Z" fill="white"/>
<path d="M366.495 166.125H356.176V147.618H358.544V163.938H366.495V166.125ZM381.264 147.618L375.14 166.125H372.59L366.466 147.618H369.002L373.927 162.953L378.845 147.618H381.264ZM389.178 166.125H382.265V164.237H384.538V149.506H382.265V147.618H389.178V149.506H386.906V164.237H389.178V166.125ZM405 147.618L398.876 166.125H396.318L390.202 147.618H392.737L397.663 162.953L402.581 147.618H405Z" fill="white"/>
<path fill-rule="evenodd" clip-rule="evenodd" d="M154.078 138.473L138.564 129.175H98.0418L82.5127 138.473C97.3622 165.294 141.765 209.201 189.857 213C173.093 203.243 146.42 168.174 154.078 138.473Z" fill="white"/>
<path fill-rule="evenodd" clip-rule="evenodd" d="M120.849 88.0979L120.55 87.5364L120.849 88.0979ZM165.033 0C165.288 19.9735 149.416 61.503 120.842 69.4735L120.849 88.1052L141.114 124.581L156.621 133.901C171.537 107.116 185.918 45.1975 165.033 0Z" fill="white"/>
<path fill-rule="evenodd" clip-rule="evenodd" d="M95.4841 124.574L95.1845 125.121L95.4841 124.574ZM115.756 69.4737C85.9986 69.4372 27.2071 87.4418 0 128.84C16.5157 118.638 59.0546 112.148 79.9769 133.901L95.4841 124.581L115.749 88.1054L115.756 69.4737Z" fill="white"/>
<path fill-rule="evenodd" clip-rule="evenodd" d="M108.792 113.934C108.792 108.494 113.045 104.083 118.292 104.083C123.539 104.083 127.792 108.494 127.792 113.934C127.792 119.404 123.539 123.815 118.292 123.815C113.045 123.815 108.792 119.404 108.792 113.934Z" fill="white"/>
</svg>
