<svg width="96" height="108" viewBox="0 0 96 108" fill="none" xmlns="http://www.w3.org/2000/svg">
<path d="M79 11.3334V12.3334H80H85.3333C90.6477 12.3334 95 16.6856 95 22V96.6667C95 101.981 90.6477 106.333 85.3333 106.333H10.6667C5.30221 106.333 1 101.984 1 96.6667L1.05333 22.0007V22C1.05333 16.6758 5.30873 12.3334 10.6667 12.3334H16H17V11.3334V1.66669H25.6667V11.3334V12.3334H26.6667H69.3333H70.3333V11.3334V1.66669H79V11.3334ZM85.3333 97.6667H86.3333V96.6667V38V37H85.3333H10.6667H9.66667V38V96.6667V97.6667H10.6667H85.3333ZM22.3333 58.3334V49.6667H31V58.3334H22.3333ZM43.6667 58.3334V49.6667H52.3333V58.3334H43.6667ZM65 58.3334V49.6667H73.6667V58.3334H65Z" stroke="white" stroke-width="2"/>
</svg>
