<svg width="13" height="13" viewBox="0 0 13 13" fill="none" xmlns="http://www.w3.org/2000/svg">
<path d="M11.4583 0.125H1.54167C0.758958 0.125 0.125 0.758958 0.125 1.54167V11.4583C0.125 12.241 0.758958 12.875 1.54167 12.875H11.4583C12.241 12.875 12.875 12.241 12.875 11.4583V1.54167C12.875 0.758958 12.241 0.125 11.4583 0.125ZM4.375 10.0417H2.58788V5.08333H4.375V10.0417ZM3.44992 4.17454C2.90379 4.17454 2.539 3.81046 2.539 3.32454C2.539 2.83862 2.90308 2.47454 3.51012 2.47454C4.05625 2.47454 4.42104 2.83862 4.42104 3.32454C4.42104 3.81046 4.05696 4.17454 3.44992 4.17454ZM10.75 10.0417H9.02025V7.33158C9.02025 6.58217 8.55912 6.40933 8.38629 6.40933C8.21346 6.40933 7.63687 6.52479 7.63687 7.33158C7.63687 7.44704 7.63687 10.0417 7.63687 10.0417H5.84975V5.08333H7.63687V5.77537C7.86708 5.37162 8.32821 5.08333 9.19308 5.08333C10.058 5.08333 10.75 5.77537 10.75 7.33158V10.0417Z" fill="white"/>
</svg>
