<svg width="76" height="108" viewBox="0 0 76 108" fill="none" xmlns="http://www.w3.org/2000/svg">
<path d="M37.9998 105.825C37.7672 105.559 37.4833 105.233 37.1533 104.85C36.1381 103.672 34.6861 101.955 32.943 99.8074C29.4558 95.5107 24.808 89.4932 20.1621 82.6074C15.5144 75.7187 10.8809 67.9791 7.41244 60.237C3.93811 52.4818 1.6665 44.7977 1.6665 38C1.6665 17.9123 17.9121 1.66669 37.9998 1.66669C58.0876 1.66669 74.3332 17.9123 74.3332 38C74.3332 44.7977 72.0616 52.4818 68.5872 60.237C65.1188 67.9791 60.4853 75.7187 55.8375 82.6074C51.1917 89.4932 46.5438 95.5107 43.0567 99.8074C41.3136 101.955 39.8616 103.672 38.8464 104.85C38.5163 105.233 38.2325 105.559 37.9998 105.825ZM23.6665 38C23.6665 45.9123 30.0876 52.3334 37.9998 52.3334C45.9121 52.3334 52.3332 45.9123 52.3332 38C52.3332 30.0877 45.9121 23.6667 37.9998 23.6667C30.0876 23.6667 23.6665 30.0877 23.6665 38Z" stroke="white" stroke-width="2"/>
</svg>
