<svg width="88" height="56" viewBox="0 0 88 56" fill="none" xmlns="http://www.w3.org/2000/svg">
<path d="M70.96 12C70.96 18.0921 66.0834 23 60 23C53.9123 23 49 18.0877 49 12C49 5.91228 53.9123 1 60 1C66.0834 1 70.96 5.90793 70.96 12ZM38.96 12C38.96 18.0921 34.0834 23 28 23C21.9123 23 17 18.0877 17 12C17 5.91228 21.9123 1 28 1C34.0834 1 38.96 5.90793 38.96 12ZM1 46C1 44.0375 1.9754 42.2453 3.74232 40.6157C5.51608 38.9799 8.02001 37.5765 10.8765 36.4334C16.5912 34.1466 23.4649 33 28 33C32.5351 33 39.4088 34.1466 45.1235 36.4334C47.98 37.5765 50.4839 38.9799 52.2577 40.6157C54.0246 42.2453 55 44.0375 55 46V55H1V46ZM65 46C65 40.5992 62.4702 36.3255 58.7528 33.0274C59.1876 33.0097 59.6044 33 60 33C64.5351 33 71.4088 34.1466 77.1235 36.4334C79.98 37.5765 82.4839 38.9799 84.2577 40.6157C86.0246 42.2453 87 44.0375 87 46V55H65V46Z" stroke="white" stroke-width="2"/>
</svg>
