<svg width="96" height="96" viewBox="0 0 96 96" fill="none" xmlns="http://www.w3.org/2000/svg">
<path d="M51 36C51 44.2843 44.2843 51 36 51C27.7157 51 21 44.2843 21 36C21 27.7157 27.7157 21 36 21C44.2843 21 51 27.7157 51 36Z" stroke="white" stroke-width="2"/>
<path d="M5 76C5 73.7073 6.14057 71.625 8.17635 69.7461C10.2189 67.8609 13.0954 66.2488 16.3669 64.9383C22.9114 62.3165 30.785 61 36 61C41.215 61 49.0886 62.3165 55.6331 64.9383C58.9046 66.2488 61.7811 67.8609 63.8236 69.7461C65.8594 71.625 67 73.7073 67 76V83H5V76ZM61.6067 43.6359C64.5844 38.9116 64.5844 33.0484 61.6067 28.3241L66.9957 22.903C73.8127 30.9922 73.7803 41.6659 67.0256 49.087L61.6067 43.6359ZM75.1187 57.4245C85.7022 44.6294 85.7333 26.795 75.1347 14.5595L80.2591 9.4351C94.5974 24.9935 94.5454 47.6351 80.2724 62.5782L75.1187 57.4245Z" stroke="white" stroke-width="2"/>
</svg>
