<svg xmlns="http://www.w3.org/2000/svg" viewBox="0 0 995 993.49"><defs><style>.cls-1{fill:#fff;}</style></defs><g id="RB"><path class="cls-1" d="M813.7,445.64a308.23,308.23,0,0,0-32.36,4C627,477.34,524.22,625.08,552,779.45c1.65,9.19,3.75,18.29,6.26,27.09A1205,1205,0,0,1,920.76,530.48c24.21-12,49-23.37,74.24-33.46A282.44,282.44,0,0,0,813.7,445.64Z"/></g><g id="LB"><path class="cls-1" d="M215.61,551.24c-8.74,1.57-17.4,3.58-25.79,5.79A1205.91,1205.91,0,0,1,466.59,922.22c11.37,23.4,22.11,47.14,32,71.27a283.31,283.31,0,0,0,50.76-177,268.13,268.13,0,0,0-4.12-35.8C517.5,626.29,370,523.5,215.61,551.24Z"/></g><g id="RT"><path class="cls-1" d="M780.45,444.67c8.74-1.57,17.4-3.58,26-5.83A1201.45,1201.45,0,0,1,531.71,73.28C520,49.25,509.13,24.84,499.35,0A283.37,283.37,0,0,0,450.6,215.29C478.33,369.66,626.08,472.41,780.45,444.67Z"/></g><g id="LT"><path class="cls-1" d="M74.1,465.18l-.22,0c-24,11.72-48.63,22.85-73.88,32.93a284,284,0,0,0,182.36,52.12,305.41,305.41,0,0,0,32.36-4C369.09,518.57,471.61,370.87,443.88,216.5c-1.57-8.74-3.55-17.17-5.75-25.57A1205.8,1205.8,0,0,1,74.1,465.18Z"/></g></svg>